<mxfile host="app.diagrams.net" modified="2022-06-09T06:38:57.986Z" agent="5.0 (Windows NT 10.0; Win64; x64) AppleWebKit/537.36 (KHTML, like Gecko) Chrome/102.0.0.0 Safari/537.36" etag="7aTzb_LZeuKudQ-D5xXa" version="19.0.3" type="github">
  <diagram id="prtHgNgQTEPvFCAcTncT" name="Page-1">
    <mxGraphModel dx="1354" dy="756" grid="1" gridSize="10" guides="1" tooltips="1" connect="1" arrows="1" fold="1" page="1" pageScale="1" pageWidth="827" pageHeight="1169" math="0" shadow="0">
      <root>
        <mxCell id="0" />
        <mxCell id="1" parent="0" />
        <mxCell id="yMV8ov8nlBNydRuiG9V--11" value="Contains" style="endArrow=open;html=1;endSize=12;startArrow=diamondThin;startSize=14;startFill=0;edgeStyle=orthogonalEdgeStyle;rounded=0;exitX=0.5;exitY=1;exitDx=0;exitDy=0;" edge="1" parent="1" target="yMV8ov8nlBNydRuiG9V--94">
          <mxGeometry relative="1" as="geometry">
            <mxPoint x="80" y="202" as="sourcePoint" />
            <mxPoint x="80" y="268" as="targetPoint" />
            <Array as="points">
              <mxPoint x="80" y="250" />
              <mxPoint x="80" y="250" />
            </Array>
          </mxGeometry>
        </mxCell>
        <mxCell id="yMV8ov8nlBNydRuiG9V--12" value="1" style="edgeLabel;resizable=0;html=1;align=left;verticalAlign=top;" connectable="0" vertex="1" parent="yMV8ov8nlBNydRuiG9V--11">
          <mxGeometry x="-1" relative="1" as="geometry">
            <mxPoint x="-10" y="-4" as="offset" />
          </mxGeometry>
        </mxCell>
        <mxCell id="yMV8ov8nlBNydRuiG9V--13" value="1" style="edgeLabel;resizable=0;html=1;align=right;verticalAlign=top;" connectable="0" vertex="1" parent="yMV8ov8nlBNydRuiG9V--11">
          <mxGeometry x="1" relative="1" as="geometry">
            <mxPoint y="-20" as="offset" />
          </mxGeometry>
        </mxCell>
        <mxCell id="yMV8ov8nlBNydRuiG9V--47" value="Contains" style="endArrow=open;html=1;endSize=12;startArrow=diamondThin;startSize=14;startFill=0;edgeStyle=orthogonalEdgeStyle;rounded=0;exitX=1;exitY=0.5;exitDx=0;exitDy=0;entryX=0.5;entryY=1;entryDx=0;entryDy=0;" edge="1" parent="1" source="yMV8ov8nlBNydRuiG9V--93" target="yMV8ov8nlBNydRuiG9V--95">
          <mxGeometry relative="1" as="geometry">
            <mxPoint x="50" y="450" as="sourcePoint" />
            <mxPoint x="210" y="450" as="targetPoint" />
            <Array as="points">
              <mxPoint x="180" y="396" />
              <mxPoint x="180" y="500" />
              <mxPoint x="318" y="500" />
            </Array>
          </mxGeometry>
        </mxCell>
        <mxCell id="yMV8ov8nlBNydRuiG9V--48" value="1" style="edgeLabel;resizable=0;html=1;align=left;verticalAlign=top;" connectable="0" vertex="1" parent="yMV8ov8nlBNydRuiG9V--47">
          <mxGeometry x="-1" relative="1" as="geometry" />
        </mxCell>
        <mxCell id="yMV8ov8nlBNydRuiG9V--49" value="1" style="edgeLabel;resizable=0;html=1;align=right;verticalAlign=top;" connectable="0" vertex="1" parent="yMV8ov8nlBNydRuiG9V--47">
          <mxGeometry x="1" relative="1" as="geometry" />
        </mxCell>
        <mxCell id="yMV8ov8nlBNydRuiG9V--53" value="Relation" style="endArrow=open;html=1;endSize=12;startArrow=diamondThin;startSize=14;startFill=0;edgeStyle=orthogonalEdgeStyle;rounded=0;" edge="1" parent="1">
          <mxGeometry relative="1" as="geometry">
            <mxPoint x="120" y="370" as="sourcePoint" />
            <mxPoint x="210" y="210" as="targetPoint" />
            <Array as="points">
              <mxPoint x="120" y="340" />
              <mxPoint x="180" y="340" />
              <mxPoint x="180" y="210" />
            </Array>
          </mxGeometry>
        </mxCell>
        <mxCell id="yMV8ov8nlBNydRuiG9V--54" value="1" style="edgeLabel;resizable=0;html=1;align=left;verticalAlign=top;" connectable="0" vertex="1" parent="yMV8ov8nlBNydRuiG9V--53">
          <mxGeometry x="-1" relative="1" as="geometry">
            <mxPoint y="-30" as="offset" />
          </mxGeometry>
        </mxCell>
        <mxCell id="yMV8ov8nlBNydRuiG9V--55" value="1..n" style="edgeLabel;resizable=0;html=1;align=right;verticalAlign=top;" connectable="0" vertex="1" parent="yMV8ov8nlBNydRuiG9V--53">
          <mxGeometry x="1" relative="1" as="geometry" />
        </mxCell>
        <mxCell id="yMV8ov8nlBNydRuiG9V--64" value="System" style="swimlane;fontStyle=0;childLayout=stackLayout;horizontal=1;startSize=26;fillColor=none;horizontalStack=0;resizeParent=1;resizeParentMax=0;resizeLast=0;collapsible=1;marginBottom=0;" vertex="1" parent="1">
          <mxGeometry x="20" y="40" width="140" height="52" as="geometry" />
        </mxCell>
        <mxCell id="yMV8ov8nlBNydRuiG9V--111" value="Contains" style="endArrow=open;html=1;endSize=12;startArrow=diamondThin;startSize=14;startFill=0;edgeStyle=orthogonalEdgeStyle;rounded=0;exitX=0.5;exitY=1;exitDx=0;exitDy=0;" edge="1" parent="yMV8ov8nlBNydRuiG9V--64" target="yMV8ov8nlBNydRuiG9V--82">
          <mxGeometry relative="1" as="geometry">
            <mxPoint x="60" y="52" as="sourcePoint" />
            <mxPoint x="60" y="118" as="targetPoint" />
            <Array as="points">
              <mxPoint x="60" y="80" />
              <mxPoint x="60" y="80" />
            </Array>
          </mxGeometry>
        </mxCell>
        <mxCell id="yMV8ov8nlBNydRuiG9V--112" value="1" style="edgeLabel;resizable=0;html=1;align=left;verticalAlign=top;" connectable="0" vertex="1" parent="yMV8ov8nlBNydRuiG9V--111">
          <mxGeometry x="-1" relative="1" as="geometry">
            <mxPoint x="-10" y="-4" as="offset" />
          </mxGeometry>
        </mxCell>
        <mxCell id="yMV8ov8nlBNydRuiG9V--113" value="1" style="edgeLabel;resizable=0;html=1;align=right;verticalAlign=top;" connectable="0" vertex="1" parent="yMV8ov8nlBNydRuiG9V--111">
          <mxGeometry x="1" relative="1" as="geometry">
            <mxPoint y="-20" as="offset" />
          </mxGeometry>
        </mxCell>
        <mxCell id="yMV8ov8nlBNydRuiG9V--82" value="Database" style="swimlane;fontStyle=0;childLayout=stackLayout;horizontal=1;startSize=26;fillColor=none;horizontalStack=0;resizeParent=1;resizeParentMax=0;resizeLast=0;collapsible=1;marginBottom=0;" vertex="1" parent="1">
          <mxGeometry x="20" y="150" width="140" height="52" as="geometry" />
        </mxCell>
        <mxCell id="yMV8ov8nlBNydRuiG9V--85" value="User" style="swimlane;fontStyle=0;childLayout=stackLayout;horizontal=1;startSize=26;fillColor=none;horizontalStack=0;resizeParent=1;resizeParentMax=0;resizeLast=0;collapsible=1;marginBottom=0;" vertex="1" parent="1">
          <mxGeometry x="414" y="66" width="140" height="52" as="geometry" />
        </mxCell>
        <mxCell id="yMV8ov8nlBNydRuiG9V--90" value="Split Distance Setting" style="swimlane;fontStyle=0;childLayout=stackLayout;horizontal=1;startSize=26;fillColor=none;horizontalStack=0;resizeParent=1;resizeParentMax=0;resizeLast=0;collapsible=1;marginBottom=0;" vertex="1" parent="1">
          <mxGeometry x="210" y="280" width="176" height="52" as="geometry" />
        </mxCell>
        <mxCell id="yMV8ov8nlBNydRuiG9V--92" value="Other Settings" style="swimlane;fontStyle=0;childLayout=stackLayout;horizontal=1;startSize=26;fillColor=none;horizontalStack=0;resizeParent=1;resizeParentMax=0;resizeLast=0;collapsible=1;marginBottom=0;" vertex="1" parent="1">
          <mxGeometry x="210" y="180" width="176" height="52" as="geometry" />
        </mxCell>
        <mxCell id="yMV8ov8nlBNydRuiG9V--93" value="User Settings" style="swimlane;fontStyle=0;childLayout=stackLayout;horizontal=1;startSize=26;fillColor=none;horizontalStack=0;resizeParent=1;resizeParentMax=0;resizeLast=0;collapsible=1;marginBottom=0;" vertex="1" parent="1">
          <mxGeometry x="10" y="370" width="140" height="52" as="geometry" />
        </mxCell>
        <mxCell id="yMV8ov8nlBNydRuiG9V--94" value="User Account" style="swimlane;fontStyle=0;childLayout=stackLayout;horizontal=1;startSize=26;fillColor=none;horizontalStack=0;resizeParent=1;resizeParentMax=0;resizeLast=0;collapsible=1;marginBottom=0;" vertex="1" parent="1">
          <mxGeometry x="20" y="260" width="140" height="52" as="geometry" />
        </mxCell>
        <mxCell id="yMV8ov8nlBNydRuiG9V--117" value="Contains" style="endArrow=open;html=1;endSize=12;startArrow=diamondThin;startSize=14;startFill=0;edgeStyle=orthogonalEdgeStyle;rounded=0;entryX=0.572;entryY=0.005;entryDx=0;entryDy=0;entryPerimeter=0;" edge="1" parent="yMV8ov8nlBNydRuiG9V--94" target="yMV8ov8nlBNydRuiG9V--93">
          <mxGeometry relative="1" as="geometry">
            <mxPoint x="70" y="50" as="sourcePoint" />
            <mxPoint x="69.94" y="100" as="targetPoint" />
            <Array as="points">
              <mxPoint x="70" y="50" />
              <mxPoint x="70" y="75" />
            </Array>
          </mxGeometry>
        </mxCell>
        <mxCell id="yMV8ov8nlBNydRuiG9V--118" value="1" style="edgeLabel;resizable=0;html=1;align=left;verticalAlign=top;" connectable="0" vertex="1" parent="yMV8ov8nlBNydRuiG9V--117">
          <mxGeometry x="-1" relative="1" as="geometry">
            <mxPoint x="-10" y="-4" as="offset" />
          </mxGeometry>
        </mxCell>
        <mxCell id="yMV8ov8nlBNydRuiG9V--119" value="1" style="edgeLabel;resizable=0;html=1;align=right;verticalAlign=top;" connectable="0" vertex="1" parent="yMV8ov8nlBNydRuiG9V--117">
          <mxGeometry x="1" relative="1" as="geometry">
            <mxPoint y="-20" as="offset" />
          </mxGeometry>
        </mxCell>
        <mxCell id="yMV8ov8nlBNydRuiG9V--95" value="Split Time Setting" style="swimlane;fontStyle=0;childLayout=stackLayout;horizontal=1;startSize=26;fillColor=none;horizontalStack=0;resizeParent=1;resizeParentMax=0;resizeLast=0;collapsible=1;marginBottom=0;" vertex="1" parent="1">
          <mxGeometry x="230" y="422" width="176" height="52" as="geometry" />
        </mxCell>
        <mxCell id="yMV8ov8nlBNydRuiG9V--105" value="Voices" style="swimlane;fontStyle=1;align=center;verticalAlign=top;childLayout=stackLayout;horizontal=1;startSize=26;horizontalStack=0;resizeParent=1;resizeParentMax=0;resizeLast=0;collapsible=1;marginBottom=0;" vertex="1" parent="1">
          <mxGeometry x="630" y="40" width="160" height="130" as="geometry" />
        </mxCell>
        <mxCell id="yMV8ov8nlBNydRuiG9V--106" value="+ id: string&#xa;+ voice_type: string" style="text;strokeColor=none;fillColor=none;align=left;verticalAlign=top;spacingLeft=4;spacingRight=4;overflow=hidden;rotatable=0;points=[[0,0.5],[1,0.5]];portConstraint=eastwest;imageHeight=49;" vertex="1" parent="yMV8ov8nlBNydRuiG9V--105">
          <mxGeometry y="26" width="160" height="64" as="geometry" />
        </mxCell>
        <mxCell id="yMV8ov8nlBNydRuiG9V--107" value="" style="line;strokeWidth=1;fillColor=none;align=left;verticalAlign=middle;spacingTop=-1;spacingLeft=3;spacingRight=3;rotatable=0;labelPosition=right;points=[];portConstraint=eastwest;" vertex="1" parent="yMV8ov8nlBNydRuiG9V--105">
          <mxGeometry y="90" width="160" height="8" as="geometry" />
        </mxCell>
        <mxCell id="yMV8ov8nlBNydRuiG9V--108" value="+ play(): void" style="text;strokeColor=none;fillColor=none;align=left;verticalAlign=top;spacingLeft=4;spacingRight=4;overflow=hidden;rotatable=0;points=[[0,0.5],[1,0.5]];portConstraint=eastwest;" vertex="1" parent="yMV8ov8nlBNydRuiG9V--105">
          <mxGeometry y="98" width="160" height="32" as="geometry" />
        </mxCell>
        <mxCell id="yMV8ov8nlBNydRuiG9V--123" value="Contains" style="endArrow=open;html=1;endSize=12;startArrow=diamondThin;startSize=14;startFill=0;edgeStyle=orthogonalEdgeStyle;rounded=0;exitX=1;exitY=0.5;exitDx=0;exitDy=0;entryX=0.5;entryY=1;entryDx=0;entryDy=0;" edge="1" parent="1" target="yMV8ov8nlBNydRuiG9V--90">
          <mxGeometry relative="1" as="geometry">
            <mxPoint x="150" y="370" as="sourcePoint" />
            <mxPoint x="318" y="448" as="targetPoint" />
            <Array as="points">
              <mxPoint x="298" y="370" />
            </Array>
          </mxGeometry>
        </mxCell>
        <mxCell id="yMV8ov8nlBNydRuiG9V--124" value="1" style="edgeLabel;resizable=0;html=1;align=left;verticalAlign=top;" connectable="0" vertex="1" parent="yMV8ov8nlBNydRuiG9V--123">
          <mxGeometry x="-1" relative="1" as="geometry" />
        </mxCell>
        <mxCell id="yMV8ov8nlBNydRuiG9V--125" value="1" style="edgeLabel;resizable=0;html=1;align=right;verticalAlign=top;" connectable="0" vertex="1" parent="yMV8ov8nlBNydRuiG9V--123">
          <mxGeometry x="1" relative="1" as="geometry" />
        </mxCell>
        <mxCell id="yMV8ov8nlBNydRuiG9V--127" value="Trigger" style="endArrow=open;html=1;endSize=12;startArrow=diamondThin;startSize=14;startFill=0;edgeStyle=orthogonalEdgeStyle;rounded=0;exitX=1;exitY=0.5;exitDx=0;exitDy=0;entryX=0.513;entryY=1;entryDx=0;entryDy=0;entryPerimeter=0;" edge="1" parent="1" target="yMV8ov8nlBNydRuiG9V--108">
          <mxGeometry relative="1" as="geometry">
            <mxPoint x="564" y="298" as="sourcePoint" />
            <mxPoint x="712" y="260" as="targetPoint" />
            <Array as="points">
              <mxPoint x="712" y="298" />
            </Array>
          </mxGeometry>
        </mxCell>
        <mxCell id="yMV8ov8nlBNydRuiG9V--128" value="1" style="edgeLabel;resizable=0;html=1;align=left;verticalAlign=top;" connectable="0" vertex="1" parent="yMV8ov8nlBNydRuiG9V--127">
          <mxGeometry x="-1" relative="1" as="geometry" />
        </mxCell>
        <mxCell id="yMV8ov8nlBNydRuiG9V--129" value="1" style="edgeLabel;resizable=0;html=1;align=right;verticalAlign=top;" connectable="0" vertex="1" parent="yMV8ov8nlBNydRuiG9V--127">
          <mxGeometry x="1" relative="1" as="geometry" />
        </mxCell>
        <mxCell id="yMV8ov8nlBNydRuiG9V--133" value="Trigger" style="endArrow=open;html=1;endSize=12;startArrow=diamondThin;startSize=14;startFill=0;edgeStyle=orthogonalEdgeStyle;rounded=0;exitX=0.5;exitY=0;exitDx=0;exitDy=0;entryX=0.134;entryY=0.012;entryDx=0;entryDy=0;entryPerimeter=0;" edge="1" parent="1">
          <mxGeometry x="-0.0068" relative="1" as="geometry">
            <mxPoint x="349" y="422" as="sourcePoint" />
            <mxPoint x="473.76" y="422.624" as="targetPoint" />
            <Array as="points">
              <mxPoint x="349" y="380" />
              <mxPoint x="474" y="380" />
            </Array>
            <mxPoint as="offset" />
          </mxGeometry>
        </mxCell>
        <mxCell id="yMV8ov8nlBNydRuiG9V--134" value="1" style="edgeLabel;resizable=0;html=1;align=left;verticalAlign=top;" connectable="0" vertex="1" parent="yMV8ov8nlBNydRuiG9V--133">
          <mxGeometry x="-1" relative="1" as="geometry" />
        </mxCell>
        <mxCell id="yMV8ov8nlBNydRuiG9V--135" value="1" style="edgeLabel;resizable=0;html=1;align=right;verticalAlign=top;" connectable="0" vertex="1" parent="yMV8ov8nlBNydRuiG9V--133">
          <mxGeometry x="1" relative="1" as="geometry">
            <mxPoint x="-14" y="-33" as="offset" />
          </mxGeometry>
        </mxCell>
        <mxCell id="yMV8ov8nlBNydRuiG9V--139" value="Notify" style="endArrow=open;html=1;endSize=12;startArrow=diamondThin;startSize=14;startFill=0;edgeStyle=orthogonalEdgeStyle;rounded=0;exitX=0;exitY=0.5;exitDx=0;exitDy=0;entryX=0.5;entryY=1;entryDx=0;entryDy=0;" edge="1" parent="1" source="yMV8ov8nlBNydRuiG9V--106" target="yMV8ov8nlBNydRuiG9V--85">
          <mxGeometry x="0.3215" relative="1" as="geometry">
            <mxPoint x="474" y="211.96" as="sourcePoint" />
            <mxPoint x="560" y="100" as="targetPoint" />
            <Array as="points">
              <mxPoint x="590" y="98" />
              <mxPoint x="590" y="150" />
              <mxPoint x="484" y="150" />
            </Array>
            <mxPoint as="offset" />
          </mxGeometry>
        </mxCell>
        <mxCell id="yMV8ov8nlBNydRuiG9V--140" value="1" style="edgeLabel;resizable=0;html=1;align=left;verticalAlign=top;" connectable="0" vertex="1" parent="yMV8ov8nlBNydRuiG9V--139">
          <mxGeometry x="-1" relative="1" as="geometry" />
        </mxCell>
        <mxCell id="yMV8ov8nlBNydRuiG9V--141" value="1" style="edgeLabel;resizable=0;html=1;align=right;verticalAlign=top;" connectable="0" vertex="1" parent="yMV8ov8nlBNydRuiG9V--139">
          <mxGeometry x="1" relative="1" as="geometry" />
        </mxCell>
        <mxCell id="yMV8ov8nlBNydRuiG9V--142" value="Gps Tracker" style="swimlane;fontStyle=0;childLayout=stackLayout;horizontal=1;startSize=26;fillColor=none;horizontalStack=0;resizeParent=1;resizeParentMax=0;resizeLast=0;collapsible=1;marginBottom=0;" vertex="1" parent="1">
          <mxGeometry x="420" y="260" width="140" height="104" as="geometry" />
        </mxCell>
        <mxCell id="yMV8ov8nlBNydRuiG9V--143" value="+ start(): void" style="text;strokeColor=none;fillColor=none;align=left;verticalAlign=top;spacingLeft=4;spacingRight=4;overflow=hidden;rotatable=0;points=[[0,0.5],[1,0.5]];portConstraint=eastwest;" vertex="1" parent="yMV8ov8nlBNydRuiG9V--142">
          <mxGeometry y="26" width="140" height="26" as="geometry" />
        </mxCell>
        <mxCell id="yMV8ov8nlBNydRuiG9V--144" value="+ push_notify(dis): viod" style="text;strokeColor=none;fillColor=none;align=left;verticalAlign=top;spacingLeft=4;spacingRight=4;overflow=hidden;rotatable=0;points=[[0,0.5],[1,0.5]];portConstraint=eastwest;" vertex="1" parent="yMV8ov8nlBNydRuiG9V--142">
          <mxGeometry y="52" width="140" height="26" as="geometry" />
        </mxCell>
        <mxCell id="yMV8ov8nlBNydRuiG9V--145" value="+ end(): void" style="text;strokeColor=none;fillColor=none;align=left;verticalAlign=top;spacingLeft=4;spacingRight=4;overflow=hidden;rotatable=0;points=[[0,0.5],[1,0.5]];portConstraint=eastwest;" vertex="1" parent="yMV8ov8nlBNydRuiG9V--142">
          <mxGeometry y="78" width="140" height="26" as="geometry" />
        </mxCell>
        <mxCell id="yMV8ov8nlBNydRuiG9V--149" value="Trigger" style="endArrow=open;html=1;endSize=12;startArrow=diamondThin;startSize=14;startFill=0;edgeStyle=orthogonalEdgeStyle;rounded=0;exitX=0.5;exitY=0;exitDx=0;exitDy=0;" edge="1" parent="1">
          <mxGeometry x="-0.0068" relative="1" as="geometry">
            <mxPoint x="359.16" y="281.96000000000004" as="sourcePoint" />
            <mxPoint x="420" y="262" as="targetPoint" />
            <Array as="points">
              <mxPoint x="359" y="240" />
              <mxPoint x="420" y="240" />
              <mxPoint x="420" y="262" />
            </Array>
            <mxPoint as="offset" />
          </mxGeometry>
        </mxCell>
        <mxCell id="yMV8ov8nlBNydRuiG9V--150" value="1" style="edgeLabel;resizable=0;html=1;align=left;verticalAlign=top;" connectable="0" vertex="1" parent="yMV8ov8nlBNydRuiG9V--149">
          <mxGeometry x="-1" relative="1" as="geometry">
            <mxPoint x="11" y="-22" as="offset" />
          </mxGeometry>
        </mxCell>
        <mxCell id="yMV8ov8nlBNydRuiG9V--151" value="1" style="edgeLabel;resizable=0;html=1;align=right;verticalAlign=top;" connectable="0" vertex="1" parent="yMV8ov8nlBNydRuiG9V--149">
          <mxGeometry x="1" relative="1" as="geometry" />
        </mxCell>
        <mxCell id="yMV8ov8nlBNydRuiG9V--152" value="Time Tracker" style="swimlane;fontStyle=0;childLayout=stackLayout;horizontal=1;startSize=26;fillColor=none;horizontalStack=0;resizeParent=1;resizeParentMax=0;resizeLast=0;collapsible=1;marginBottom=0;" vertex="1" parent="1">
          <mxGeometry x="434" y="422" width="140" height="104" as="geometry" />
        </mxCell>
        <mxCell id="yMV8ov8nlBNydRuiG9V--153" value="+ start(): void" style="text;strokeColor=none;fillColor=none;align=left;verticalAlign=top;spacingLeft=4;spacingRight=4;overflow=hidden;rotatable=0;points=[[0,0.5],[1,0.5]];portConstraint=eastwest;" vertex="1" parent="yMV8ov8nlBNydRuiG9V--152">
          <mxGeometry y="26" width="140" height="26" as="geometry" />
        </mxCell>
        <mxCell id="yMV8ov8nlBNydRuiG9V--154" value="+ push_notify(time): viod" style="text;strokeColor=none;fillColor=none;align=left;verticalAlign=top;spacingLeft=4;spacingRight=4;overflow=hidden;rotatable=0;points=[[0,0.5],[1,0.5]];portConstraint=eastwest;" vertex="1" parent="yMV8ov8nlBNydRuiG9V--152">
          <mxGeometry y="52" width="140" height="26" as="geometry" />
        </mxCell>
        <mxCell id="yMV8ov8nlBNydRuiG9V--155" value="+ end(): void" style="text;strokeColor=none;fillColor=none;align=left;verticalAlign=top;spacingLeft=4;spacingRight=4;overflow=hidden;rotatable=0;points=[[0,0.5],[1,0.5]];portConstraint=eastwest;" vertex="1" parent="yMV8ov8nlBNydRuiG9V--152">
          <mxGeometry y="78" width="140" height="26" as="geometry" />
        </mxCell>
        <mxCell id="yMV8ov8nlBNydRuiG9V--130" value="Trigger" style="endArrow=open;html=1;endSize=12;startArrow=diamondThin;startSize=14;startFill=0;edgeStyle=orthogonalEdgeStyle;rounded=0;exitX=0.694;exitY=-0.035;exitDx=0;exitDy=0;entryX=0.88;entryY=1.069;entryDx=0;entryDy=0;entryPerimeter=0;exitPerimeter=0;" edge="1" parent="yMV8ov8nlBNydRuiG9V--152">
          <mxGeometry relative="1" as="geometry">
            <mxPoint x="87.15999999999985" y="-5.684341886080802e-14" as="sourcePoint" />
            <mxPoint x="326.79999999999995" y="-253.08200000000005" as="targetPoint" />
            <Array as="points">
              <mxPoint x="87" y="-40.18000000000001" />
              <mxPoint x="326" y="-40.18000000000001" />
              <mxPoint x="326" y="-175.18" />
              <mxPoint x="327" y="-175.18" />
            </Array>
          </mxGeometry>
        </mxCell>
        <mxCell id="yMV8ov8nlBNydRuiG9V--131" value="1" style="edgeLabel;resizable=0;html=1;align=left;verticalAlign=top;" connectable="0" vertex="1" parent="yMV8ov8nlBNydRuiG9V--130">
          <mxGeometry x="-1" relative="1" as="geometry">
            <mxPoint x="9" y="-30" as="offset" />
          </mxGeometry>
        </mxCell>
        <mxCell id="yMV8ov8nlBNydRuiG9V--132" value="1" style="edgeLabel;resizable=0;html=1;align=right;verticalAlign=top;" connectable="0" vertex="1" parent="yMV8ov8nlBNydRuiG9V--130">
          <mxGeometry x="1" relative="1" as="geometry" />
        </mxCell>
      </root>
    </mxGraphModel>
  </diagram>
</mxfile>
